PathFileType	4	(X/Y/Z)	 s11c0102.trc
DataRate	CameraRate	NumFrames	NumMarkers	Units	OrigDataRate	OrigDataStartFrame	OrigNumFrames
200	200	4	48	mm	200	1001	2000
Frame#	Time	racr			lacr			c7			jug			rlel			rdr			llel			ldr			s2			lic			ric			lasi			rasi			rpsi			lpsi			rgt			lgt			rth1			rth2			rth3			rth4			rlfc			rmfc			rsh1			rsh2			rsh3			rsh4			rlmal			rcal			rtoe			rmt5			lth1			lth2			lth4			lth3			llfc			lmfc			llmal			lcal			lmt5			lsh1			lsh2			lsh3			lsh4			ltoe			SBIKE			LBIKE			RBIKE			
		X1	Y1	Z1	X2	Y2	Z2	X3	Y3	Z3	X4	Y4	Z4	X5	Y5	Z5	X6	Y6	Z6	X7	Y7	Z7	X8	Y8	Z8	X9	Y9	Z9	X10	Y10	Z10	X11	Y11	Z11	X12	Y12	Z12	X13	Y13	Z13	X14	Y14	Z14	X15	Y15	Z15	X16	Y16	Z16	X17	Y17	Z17	X18	Y18	Z18	X19	Y19	Z19	X20	Y20	Z20	X21	Y21	Z21	X22	Y22	Z22	X23	Y23	Z23	X24	Y24	Z24	X25	Y25	Z25	X26	Y26	Z26	X27	Y27	Z27	X28	Y28	Z28	X29	Y29	Z29	X30	Y30	Z30	X31	Y31	Z31	X32	Y32	Z32	X33	Y33	Z33	X34	Y34	Z34	X35	Y35	Z35	X36	Y36	Z36	X37	Y37	Z37	X38	Y38	Z38	X39	Y39	Z39	X40	Y40	Z40	X41	Y41	Z41	X42	Y42	Z42	X43	Y43	Z43	X44	Y44	Z44	X45	Y45	Z45	X46	Y46	Z46	X47	Y47	Z47	X48	Y48	Z48	
1001	5.0050	555.304045	1361.540728	-137.716319	509.792598	1364.567505	-419.838847	476.862931	1441.907178	-273.705948	467.529675	1253.234329	-277.742346	604.271958	1142.055895	36.813166	784.607291	928.849555	-39.923652	506.037550	1079.846993	-540.468456	783.216823	932.150294	-445.168258	-97.152521	1218.083800	-221.638448	103.249080	1265.029883	-436.887180	131.883751	1208.468739	-34.417162	136.649310	1199.401407	-389.660465	157.852585	1151.239154	-66.299268	-49.710094	1288.356180	-158.346918	-62.034988	1291.642059	-254.378210	48.507585	1049.975493	-24.132468	51.446592	1157.195296	-458.859647	112.072578	925.381472	-16.533757	173.768378	860.002132	-27.327639	192.156243	777.184456	-49.925359	206.208322	878.294885	-32.320893	244.175988	686.737177	-72.533323	248.075706	672.458189	-197.853279	195.831879	539.752812	-57.848648	190.082237	453.676947	-77.026139	143.276574	379.975173	-79.710876	214.459869	449.497843	-107.911739	96.197321	245.739976	-94.658772	34.244923	231.177925	-143.486308	316.244222	178.488311	-134.400025	243.800417	154.654495	-66.994612	193.136003	1118.005024	-466.302890	278.601417	1118.271043	-458.850939	288.218378	1151.048239	-442.797508	356.976466	1074.244670	-462.519990	478.471740	1030.027111	-444.691667	500.602606	1021.462777	-307.965858	288.524734	653.915145	-409.757150	230.308812	658.985514	-372.860307	338.622569	481.425068	-435.608754	431.176176	924.141990	-454.387053	416.577342	840.547770	-439.962440	360.944313	771.988648	-432.204068	447.477167	829.108042	-418.748980	419.755012	427.916698	-368.960234	-204.400977	956.331908	-261.311324	1.419082	82.882166	-461.007817	-15.113093	81.211938	-62.434632	
1002	5.0100	555.588019	1359.929654	-138.368352	510.564831	1362.923043	-419.091251	477.861480	1439.975438	-273.911475	468.062361	1251.315750	-277.821036	604.932341	1141.809307	37.248394	784.731565	928.601716	-39.676020	506.001320	1079.573612	-541.535708	782.819130	932.308061	-445.285404	-97.506248	1220.315202	-220.847741	102.146799	1266.604131	-437.281535	133.096941	1209.691988	-34.456033	135.217305	1201.146695	-390.160154	158.284520	1151.958953	-66.547126	-49.090271	1290.553583	-157.799263	-62.447208	1294.120453	-253.943665	48.349783	1051.810771	-23.682605	49.874245	1158.468163	-458.206882	111.321114	928.499157	-15.827580	175.792677	862.920725	-26.471333	195.415371	780.636654	-49.146093	207.957216	881.587077	-30.966036	248.293209	690.333273	-71.047448	254.345363	676.461939	-197.077834	196.842467	543.720877	-56.846781	189.019209	457.941348	-76.278247	140.494291	385.372919	-79.319252	213.378339	453.202477	-107.092104	90.149742	252.661090	-94.460980	28.126605	240.590510	-143.465537	307.992239	177.442927	-134.738699	234.769330	156.302084	-67.313534	191.703965	1119.020216	-465.604793	277.143196	1118.871419	-458.127967	286.933492	1151.654792	-442.399710	355.355520	1074.423731	-461.171013	477.117814	1029.853999	-443.163639	497.920563	1021.313683	-306.736899	292.335888	650.409023	-409.548480	233.047934	653.512212	-373.333266	348.226986	480.210666	-435.734813	432.078463	923.217898	-452.481701	418.909643	839.140102	-439.043579	364.522025	769.649806	-432.266612	449.794528	828.198326	-417.451736	431.290504	429.960869	-368.480879	-204.453980	956.330507	-261.153388	1.413476	82.908022	-460.987634	-15.097818	81.212750	-62.422026	
1003	5.0150	555.819667	1358.077767	-138.717039	511.260725	1361.018004	-418.303772	478.815265	1437.936986	-274.034277	468.342463	1249.301278	-277.724374	605.347324	1141.504636	37.968918	784.810940	928.453158	-39.369807	506.023690	1079.187084	-542.710346	782.402526	932.349948	-445.375650	-97.957683	1222.552223	-220.135233	101.013868	1268.364560	-437.992456	133.819595	1210.539617	-34.110232	133.854573	1202.834657	-391.298918	158.394917	1153.097742	-66.814686	-47.009786	1291.873534	-158.460742	-61.804704	1296.056681	-254.408677	48.136179	1053.740230	-22.960327	47.990462	1159.299339	-457.324693	111.004991	931.672416	-15.104265	178.437701	866.118365	-25.748809	199.643626	784.125878	-48.205286	210.403000	885.315297	-29.833536	253.651958	694.370547	-69.469478	260.918831	680.621184	-195.562270	198.506368	548.410399	-55.953249	188.609164	462.865936	-75.603858	138.307449	391.501986	-78.919220	212.984703	457.535450	-106.310985	84.719660	260.358464	-94.368374	22.891646	250.805794	-143.498838	299.933600	176.712482	-135.116349	225.998238	158.499555	-67.638033	190.033924	1119.422663	-464.908941	275.312206	1118.938482	-457.649378	285.423004	1151.677191	-442.000896	353.423541	1074.032140	-460.347432	475.517304	1028.472893	-442.017147	495.021691	1020.046936	-305.597808	295.531098	645.661547	-409.471335	235.115000	646.841786	-373.878206	357.522232	477.926896	-435.266306	432.971074	921.027194	-450.620532	421.014996	836.475685	-438.391749	367.638767	766.113253	-432.565471	451.718788	825.990622	-416.394989	442.443467	431.786285	-368.021893	-204.461330	956.193695	-260.906978	1.416220	82.938867	-460.978596	-15.109116	81.228225	-62.423155	
1004	5.0200	555.930645	1356.062422	-138.836767	511.925195	1358.859422	-417.402967	479.717753	1435.677441	-274.160267	468.511560	1247.070503	-277.553430	605.615046	1141.104260	39.012170	784.783879	928.412394	-39.081471	506.010215	1078.522494	-543.923453	781.949228	932.339053	-445.596961	-98.460603	1224.850757	-219.309224	99.718195	1270.156292	-438.926095	134.109695	1212.376618	-33.534737	132.228561	1204.063966	-392.303628	158.243836	1154.410714	-67.116407	-46.747753	1294.123458	-158.095355	-62.067049	1298.267229	-254.050987	48.003908	1055.669969	-22.641743	45.906911	1159.797191	-456.531176	111.566876	934.605668	-14.214861	181.672225	869.555542	-25.219095	204.558559	787.772704	-47.165492	213.285025	889.113508	-29.084771	259.207320	698.697212	-68.131726	267.192518	685.491857	-194.487776	200.888958	553.538974	-55.099645	188.930890	468.191120	-74.965608	136.904162	398.223396	-78.583371	213.323083	462.421240	-105.590481	80.126384	268.774892	-94.236938	18.413698	261.918849	-143.591721	292.146344	175.930946	-135.632230	217.525914	161.289661	-68.044516	188.059601	1119.370502	-464.225463	273.338976	1118.379786	-457.103495	283.726993	1151.133058	-441.693237	351.013187	1073.084778	-459.964665	474.701923	1025.627139	-440.643652	492.130597	1017.403603	-304.644599	298.050827	639.929397	-409.622321	236.612488	638.933229	-374.763203	366.434364	475.471071	-435.643368	433.596452	917.412768	-449.295866	422.575392	832.450186	-438.081278	370.025990	761.523581	-433.010947	452.923476	823.037118	-417.025342	453.262529	433.480171	-367.639327	-204.489700	956.174037	-260.810230	1.416890	82.972388	-460.949599	-15.106106	81.241771	-62.422023	
